Coordinates
version=1
nRows=16
nColumns=40
inDegrees=yes

Units are S.I. units (second, meters, Newtons, ...)
Angles are in degrees.

endheader
time	pelvis_tilt	pelvis_list	pelvis_rotation	pelvis_tx	pelvis_ty	pelvis_tz	hip_flexion_r	hip_adduction_r	hip_rotation_r	knee_angle_r	knee_angle_r_beta	ankle_angle_r	subtalar_angle_r	mtp_angle_r	hip_flexion_l	hip_adduction_l	hip_rotation_l	knee_angle_l	knee_angle_l_beta	ankle_angle_l	subtalar_angle_l	mtp_angle_l	lumbar_extension	lumbar_bending	lumbar_rotation	arm_flex_r	arm_add_r	arm_rot_r	elbow_flex_r	pro_sup_r	wrist_flex_r	wrist_dev_r	arm_flex_l	arm_add_l	arm_rot_l	elbow_flex_l	pro_sup_l	wrist_flex_l	wrist_dev_l
     22.06250000	     -4.03347503	     -3.53047053	      6.45378277	      1.12819252	      0.91279520	      0.43738743	      0.05420695	     -2.72452791	    -14.74323647	     35.71159924	     35.71159924	      9.49950501	    -11.48291797	    -20.27617967	     30.03234682	     -2.61951631	     -2.98151312	     28.22954213	     28.22954213	      6.28768184	    -16.20624478	      5.39282197	     -7.11743602	      3.67406727	      2.53114291	     13.54095132	    -36.55004279	     26.39698988	    127.68753155	     42.97048121	      0.00000000	      0.00000000	    -16.45489146	     -8.27053086	     -1.05766786	     22.83785488	     46.31526034	      0.00000000	      0.00000000
     22.07400000	     -3.96204139	     -3.22009747	      6.36146602	      1.12836554	      0.91437184	      0.43460274	      1.89034833	     -3.92740648	    -14.51414323	     40.06254315	     40.06254315	      7.14036907	    -13.09006049	    -20.31960960	     29.11514043	     -2.26925002	     -3.29925648	     28.10456578	     28.10456578	      6.94303040	    -16.03206170	      5.01614021	     -7.26175099	      3.41966211	      1.83774978	     12.33821013	    -35.89023737	     25.12999066	    125.44759084	     43.08682651	      0.00000000	      0.00000000	    -15.55779580	     -8.13859911	     -1.08784719	     23.27898943	     46.33519839	      0.00000000	      0.00000000
     22.08550000	     -3.92441689	     -3.13842446	      6.31101142	      1.12845950	      0.91601400	      0.43211286	      3.79074899	     -4.73871920	    -14.12304733	     44.14432780	     44.14432780	      4.61845627	    -14.75595999	    -19.59038154	     28.15642185	     -2.12787395	     -3.46284037	     27.74064575	     27.74064575	      7.42189043	    -15.82097289	      4.14755683	     -7.36946493	      3.35944332	      2.38813087	      8.26039434	    -34.06277985	     18.65805716	    122.80005137	     43.45627634	      0.00000000	      0.00000000	    -13.91207422	     -8.21076176	     -1.38554185	     23.98416328	     46.39765685	      0.00000000	      0.00000000
     22.09700000	     -3.87387529	     -2.95584096	      6.17563810	      1.12834960	      0.91745891	      0.42978916	      5.82261769	     -5.69613124	    -13.71364754	     48.30738481	     48.30738481	      2.49399242	    -15.77462128	    -17.78575700	     27.21924332	     -1.96004429	     -3.86067451	     27.46849124	     27.46849124	      8.00137320	    -15.43780843	      3.58395230	     -7.47089489	      3.22482857	      1.79389000	      7.11634228	    -32.82088176	     16.90294392	    119.50512930	     43.63344071	      0.00000000	      0.00000000	    -12.79758977	     -8.19639525	     -1.31088534	     24.47856438	     46.39471806	      0.00000000	      0.00000000
     22.10850000	     -3.84541339	     -2.65390710	      5.99286661	      1.12803686	      0.91875015	      0.42760817	      7.91901094	     -6.77868164	    -13.26536506	     52.27063371	     52.27063371	      0.37135634	    -16.59903865	    -16.53590831	     26.26030150	     -1.68889462	     -4.36826231	     27.12195082	     27.12195082	      8.56566029	    -15.00735170	      3.17713692	     -7.66520451	      3.00226706	      1.27838402	      6.16364397	    -32.18147755	     16.24033470	    117.55165995	     43.71774496	      0.00000000	      0.00000000	    -11.55212947	     -8.23521566	     -1.29186913	     25.08887435	     46.40957556	      0.00000000	      0.00000000
     22.12000000	     -3.83330213	     -2.66862431	      5.80838846	      1.12768507	      0.92002974	      0.42592490	     10.28793703	     -7.25455844	    -12.52714676	     56.40847612	     56.40847612	      0.97680699	    -15.84016028	     -7.74405152	     25.34576108	     -1.78716730	     -4.82072420	     26.70901654	     26.70901654	      8.76309410	    -14.52448079	      1.77867924	     -7.72689447	      3.05194865	      1.51458772	      3.75103695	    -30.02829509	     11.60330418	    113.73690419	     44.03323313	      0.00000000	      0.00000000	    -10.11986409	     -8.44440525	     -1.07378517	     26.34075295	     46.36145270	      0.00000000	      0.00000000
     22.13150000	     -3.79918380	     -2.45997717	      5.60540998	      1.12715197	      0.92116645	      0.42413998	     12.33639216	     -8.02991354	    -11.97047442	     59.63137330	     59.63137330	     -0.68751448	    -16.42703245	     -7.03845452	     24.42372736	     -1.61596780	     -5.26876346	     26.37635836	     26.37635836	      9.28833121	    -14.09870091	      1.45933664	     -7.91361518	      2.94813771	      1.07915223	      2.91451330	    -29.39640399	     11.24221708	    111.54967752	     44.11299575	      0.00000000	      0.00000000	     -8.64829988	     -8.56945151	     -1.01456015	     26.91736247	     46.37417837	      0.00000000	      0.00000000
     22.14300000	     -3.78412987	     -2.52473202	      5.35946664	      1.12666873	      0.92242523	      0.42280177	     14.45821912	     -8.29239716	    -11.28122811	     62.60729769	     62.60729769	     -0.86448984	    -16.33854630	     -3.24341237	     23.51488737	     -1.80552147	     -5.79863714	     25.97227186	     25.97227186	      9.70163048	    -13.38526164	      0.67871113	     -7.89396130	      3.01894878	      0.68689103	      2.11337592	    -26.96091465	      7.97767237	    105.79838410	     44.41097505	      0.00000000	      0.00000000	     -7.33687382	     -8.82032096	     -0.74247056	     27.66065084	     46.33608988	      0.00000000	      0.00000000
     22.15450000	     -3.78078144	     -2.53579216	      5.10960278	      1.12604195	      0.92353884	      0.42151628	     16.59344866	     -8.57492853	    -10.62730162	     65.31158030	     65.31158030	     -0.45615304	    -15.94778761	      0.89044393	     22.61233345	     -1.88035790	     -6.18606638	     25.52800084	     25.52800084	     10.00488603	    -12.99143731	     -0.08085276	     -7.98748327	      3.13747944	      0.93172952	      0.71045206	    -25.78305513	      5.73906170	    102.25812806	     44.61649199	      0.00000000	      0.00000000	     -5.58864323	     -9.12994428	     -0.05341425	     28.46446265	     46.22830119	      0.00000000	      0.00000000
     22.16600000	     -3.74156404	     -2.58452967	      4.78840155	      1.12538122	      0.92475181	      0.42036802	     18.50548382	     -8.69162881	     -9.94077781	     67.32571915	     67.32571915	     -0.89059212	    -16.08016159	      1.19136911	     21.68671264	     -2.02209493	     -6.62349722	     25.12401278	     25.12401278	     10.42779442	    -12.54429879	     -0.39638054	     -8.10758768	      3.27813382	      0.75054031	      0.00778511	    -24.63940545	      4.38702060	     98.03691021	     44.79364195	      0.00000000	      0.00000000	     -3.93255580	     -9.33071958	      0.13338752	     29.12733360	     46.21964910	      0.00000000	      0.00000000
     22.17750000	     -3.72380058	     -2.63578766	      4.47012778	      1.12464572	      0.92596814	      0.41934859	     20.39817932	     -8.72066181	     -9.28903289	     68.98452720	     68.98452720	     -0.97418199	    -16.13427471	      1.53849084	     20.75877933	     -2.14077768	     -7.02380516	     24.64856810	     24.64856810	     10.75553969	    -12.19875639	     -0.73617760	     -8.20664660	      3.43136372	      0.52091510	     -0.45897192	    -23.08017319	      2.51728918	     93.44440941	     44.99892440	      0.00000000	      0.00000000	     -2.30912757	     -9.62462077	      0.44257612	     29.66850155	     46.19107805	      0.00000000	      0.00000000
     22.18900000	     -3.67142251	     -2.75790532	      4.13038532	      1.12396862	      0.92726862	      0.41845444	     22.14474742	     -8.59474803	     -8.69042365	     70.17211099	     70.17211099	     -0.95168281	    -16.14299684	      1.53851643	     19.77847775	     -2.31586440	     -7.32630423	     24.13973461	     24.13973461	     11.09151811	    -11.94327796	     -1.01851080	     -8.31089214	      3.65312887	      0.55392160	     -1.03449976	    -21.96884828	      0.99473945	     88.79367609	     45.19154687	      0.00000000	      0.00000000	     -0.45934534	     -9.89142516	      0.74830554	     30.25071314	     46.16944256	      0.00000000	      0.00000000
     22.20050000	     -3.62557030	     -2.88828500	      3.77560012	      1.12325315	      0.92855134	      0.41767129	     23.81529918	     -8.40936187	     -8.16120853	     70.95494833	     70.95494833	     -0.82270964	    -16.19480765	      1.32320955	     18.77910160	     -2.48601595	     -7.62280549	     23.56875573	     23.56875573	     11.36099770	    -11.74680291	     -1.25218130	     -8.41787539	      3.88249079	      0.60422011	     -1.45776818	    -20.87710339	     -0.46064664	     83.87143554	     45.38913409	      0.00000000	      0.00000000	      1.41345475	    -10.16227250	      1.11778745	     30.72604224	     46.14028681	      0.00000000	      0.00000000
     22.21200000	     -3.57260484	     -3.03690506	      3.41034924	      1.12253352	      0.92984207	      0.41701330	     25.37456848	     -8.15602979	     -7.70333246	     71.31568620	     71.31568620	     -0.67375886	    -16.30477380	      1.00674898	     17.75747647	     -2.66398853	     -7.89189072	     22.96310796	     22.96310796	     11.59198244	    -11.59787487	     -1.45267613	     -8.52559877	      4.12612503	      0.64556806	     -1.71343147	    -19.87141212	     -1.74784669	     78.76959823	     45.58500656	      0.00000000	      0.00000000	      3.33024825	    -10.46386703	      1.55233029	     31.12541027	     46.10516265	      0.00000000	      0.00000000
     22.22350000	     -3.51516371	     -3.18544318	      3.04137567	      1.12184895	      0.93107941	      0.41646164	     26.81362934	     -7.87622253	     -7.32265603	     71.26913949	     71.26913949	     -0.49907953	    -16.45997281	      0.73807221	     16.71296971	     -2.83244094	     -8.15694935	     22.32565821	     22.32565821	     11.80424640	    -11.47487702	     -1.61487823	     -8.62316864	      4.34812818	      0.70987548	     -1.82039072	    -19.00173249	     -2.78555866	     73.50927598	     45.77503468	      0.00000000	      0.00000000	      5.25738916	    -10.78582887	      2.04558687	     31.51868134	     46.06347709	      0.00000000	      0.00000000
     22.23500000	     -3.42606413	     -3.33349623	      2.68310643	      1.12119429	      0.93223489	      0.41600893	     28.10220648	     -7.59518969	     -7.05431422	     70.85140010	     70.85140010	     -0.28568366	    -16.61982134	      0.65291932	     15.63712600	     -2.99700246	     -8.41504643	     21.69723245	     21.69723245	     12.03698697	    -11.33336900	     -1.74173889	     -8.78933249	      4.57292669	      0.92241664	     -2.02698953	    -18.35582765	     -3.39842688	     68.45667427	     45.94443248	      0.00000000	      0.00000000	      7.26488633	    -11.06018131	      2.47545641	     32.04656114	     46.03440571	      0.00000000	      0.00000000
